<svg width="188" height="45" viewBox="0 0 188 45" fill="none" xmlns="http://www.w3.org/2000/svg">
<path fill-rule="evenodd" clip-rule="evenodd" d="M73.3209 32.5283L70.7494 44.4836H64.835L74.6066 1.1561H81.6129L90.8059 44.4836H84.8272L82.32 32.5283H73.3209ZM81.6129 27.7067L79.62 17.3554C79.0414 14.3982 78.4628 10.5431 78.0138 7.45625H77.7556C77.3067 10.6063 76.6617 14.5911 76.0852 17.3554L74.028 27.7067H81.6129ZM113.381 0V36.4487C113.381 38.8284 113.51 42.2999 113.638 44.4846H108.431L108.046 40.6928H107.853C106.824 42.8775 104.446 45 101.297 45C95.5107 45 91.9749 38.6988 91.9749 28.9936C91.9749 17.9361 96.6668 12.7289 101.618 12.7289C104.124 12.7289 106.117 13.8871 107.21 16.2647H107.338V0H113.381ZM107.337 25.1352C107.337 24.5577 107.337 23.8506 107.273 23.2056C106.952 20.378 105.344 17.9351 103.16 17.9351C99.3658 17.9351 98.0811 23.2056 98.0811 28.9925C98.0811 35.4212 99.7526 39.9202 102.967 39.9202C104.317 39.9202 106.116 39.2131 107.145 35.4855C107.273 34.9712 107.337 34.1987 107.337 33.4937V25.1352ZM127.775 44.9989C121.541 44.9989 117.039 39.6631 117.039 28.9293C117.039 17.5493 122.374 12.7278 128.096 12.7278C134.267 12.7278 138.702 18.2565 138.702 28.7996C138.702 41.2071 132.595 44.9989 127.839 44.9989H127.775ZM127.967 40.2427C131.695 40.2427 132.532 33.6212 132.532 28.865C132.532 24.1709 131.696 17.4861 127.84 17.4861C123.853 17.4861 123.082 24.1709 123.082 28.865C123.082 34.0712 123.982 40.2427 127.904 40.2427H127.967ZM142.345 0H148.387V16.7779H148.516C150.123 13.9503 152.308 12.7278 155.073 12.7278C160.408 12.7278 163.752 18.7708 163.752 28.3496C163.752 39.5345 159.187 44.9989 154.044 44.9989C150.958 44.9989 149.223 43.3264 147.872 40.562H147.617L147.294 44.4836H142.088C142.216 42.3632 142.345 38.8274 142.345 36.4477V0ZM148.387 33.4262C148.387 34.1355 148.451 34.8426 148.644 35.3558C149.607 39.1499 151.473 39.9202 152.693 39.9202C156.293 39.9202 157.643 35.1641 157.643 28.7353C157.643 22.7566 156.23 17.9351 152.629 17.9351C150.636 17.9351 149.029 20.3137 148.579 22.5638C148.45 23.2066 148.386 24.0434 148.386 24.6852V33.4262H148.387ZM172.668 30.0843C172.733 38.1202 176.203 40.112 179.867 40.112C182.053 40.112 183.917 39.5988 185.267 38.9549L186.167 43.3264C184.303 44.2907 181.475 44.8061 178.71 44.8061C170.868 44.8061 166.754 38.8916 166.754 29.2486C166.754 19.0269 171.446 12.7267 177.939 12.7267C184.432 12.7267 187.453 18.9626 187.453 26.8067C187.453 28.3485 187.388 29.3139 187.325 30.1486L172.668 30.0843ZM181.732 25.7781C181.796 20.2494 179.867 17.2933 177.49 17.2933C174.339 17.2933 172.924 21.8577 172.733 25.7781H181.732Z" fill="#333333"/>
<path fill-rule="evenodd" clip-rule="evenodd" d="M30.7797 1.27173H48.8304V44.4835L30.7797 1.27173ZM18.0636 1.27173H0V44.4835L18.0636 1.27173ZM24.4227 17.1967L35.9237 44.4835H28.3871L24.9477 35.7929H16.5293L24.4227 17.1967Z" fill="#333333"/>
</svg>
