<svg width="134" height="60" viewBox="0 0 134 60" fill="none" xmlns="http://www.w3.org/2000/svg">
<path fill-rule="evenodd" clip-rule="evenodd" d="M86.3014 44.3306C76.7263 54.5534 62.7989 60 50.7864 60C33.9575 60 18.8694 51.0341 7.37924 36.1187C6.50878 34.9456 7.26318 33.3536 8.36577 34.2753C20.7264 44.6657 35.9885 50.8665 51.773 50.8665C62.3926 50.8665 74.1149 47.6823 84.9087 41.0626C86.5336 40.1408 87.8683 42.6547 86.3014 44.3306Z" fill="#333333"/>
<path fill-rule="evenodd" clip-rule="evenodd" d="M90.8019 40.3526C89.8248 38.2864 84.2883 39.3578 81.8224 39.8935C81.078 40.0465 80.9384 38.9752 81.6363 38.2099C86.0563 33.0827 93.2677 34.6132 94.1052 36.2968C94.9427 37.9803 93.8726 49.9183 89.7318 55.5812C89.0804 56.423 88.4756 55.9638 88.7547 54.816C89.6853 50.9897 91.7789 42.4953 90.8019 40.3526Z" fill="#333333"/>
<path fill-rule="evenodd" clip-rule="evenodd" d="M77.4379 7.27061V2.24306C77.4379 1.46959 77.767 1.0055 78.1902 1.0055H91.8253C92.2484 1.0055 92.6246 1.54694 92.6246 2.24306V6.49714C92.6246 7.19327 92.2484 8.12144 91.5902 9.66838L84.5375 26.2206C87.1705 26.1433 89.9446 26.7621 92.2954 28.9278C92.8126 29.3919 92.9537 30.1653 93.0007 30.8615V36.1984C93.0007 36.9719 92.5305 37.8227 92.0133 37.3586C87.8288 33.7233 82.2337 33.3366 77.626 37.436C77.1558 37.8227 76.6386 37.0492 76.6386 36.2757V31.1708C76.6386 30.3974 76.6386 29.0051 77.1558 27.7676L85.3368 8.50817H78.2372C77.814 8.50817 77.4379 7.96674 77.4379 7.27061ZM27.7404 38.4415H23.6028C23.2267 38.3641 22.8975 37.9 22.8505 37.2812V2.32041C22.8505 1.62429 23.2267 1.08285 23.6498 1.08285H27.5053C27.9284 1.08285 28.2105 1.62428 28.2575 2.24306V6.80653H28.3516C29.3389 2.39775 31.2667 0.309383 33.8056 0.309383C36.3916 0.309383 38.0372 2.39775 39.1656 6.80653C40.153 2.39775 42.4568 0.309383 44.9018 0.309383C46.6414 0.309383 48.5221 1.46959 49.6976 4.17673C51.014 7.11592 50.7319 11.37 50.7319 15.16V37.2812C50.7319 37.9774 50.3558 38.5188 49.9326 38.5188H45.8421C45.4189 38.4415 45.0898 37.9 45.0898 37.2812V18.718C45.0898 17.2484 45.1839 13.5357 44.9958 12.1435C44.6667 9.82306 43.7733 9.12694 42.5509 9.12694C41.5635 9.12694 40.4821 10.2098 40.0589 11.9888C39.6358 13.7678 39.6828 16.7069 39.6828 18.718V37.2812C39.6828 37.9774 39.3067 38.5188 38.8835 38.5188H34.746C34.3228 38.4415 33.9937 37.9 33.9937 37.2812V18.718C33.9937 14.8506 34.3698 9.04959 31.4547 9.04959C28.4926 9.04959 28.5867 14.6186 28.5867 18.718V37.2812C28.5396 37.9 28.2105 38.4415 27.7404 38.4415ZM104.379 0.309383C110.538 0.309383 113.876 8.97225 113.876 20.0329C113.876 30.7068 110.209 39.2149 104.379 39.2149C98.3607 39.2149 95.0695 30.5521 95.0695 19.7235C95.0225 8.81756 98.3607 0.309383 104.379 0.309383ZM104.379 7.50265C101.323 7.50265 101.135 14.3866 101.135 18.6406C101.135 22.8947 101.088 32.0217 104.332 32.0217C107.529 32.0217 107.717 24.6737 107.717 20.1876C107.717 17.2484 107.623 13.6904 107.106 10.9059C106.636 8.43083 105.695 7.50265 104.379 7.50265ZM121.822 38.4415H117.685C117.262 38.3641 116.933 37.8227 116.933 37.2039V2.16571C116.98 1.54693 117.309 1.0055 117.732 1.0055H121.587C121.964 1.0055 122.246 1.4696 122.34 2.01103V7.34797H122.434C123.609 2.55245 125.208 0.309383 128.076 0.309383C129.909 0.309383 131.743 1.39223 132.919 4.40877C134 7.19326 134 11.9114 134 15.3147V37.3586C133.953 37.9774 133.624 38.4415 133.201 38.4415H129.063C128.687 38.3641 128.358 37.9 128.311 37.3586V18.3312C128.311 14.4639 128.593 8.89491 125.725 8.89491C124.738 8.89491 123.797 9.97777 123.327 11.6794C122.763 13.8451 122.669 15.9335 122.669 18.3312V37.2039C122.622 37.9 122.246 38.4415 121.822 38.4415ZM66.5768 21.7345C66.5768 24.3643 66.6239 26.6074 65.8246 29.0051C65.1663 30.9388 64.1319 32.099 62.9565 32.099C61.3579 32.099 60.4175 30.088 60.4175 27.1488C60.4175 21.3478 63.5677 20.2649 66.5768 20.2649V21.7345ZM70.7614 38.3641C70.4793 38.7509 70.1032 38.8282 69.774 38.5188C68.4105 36.6625 68.1284 35.7343 67.3761 33.9553C65.1193 37.7453 63.4737 38.9055 60.5586 38.9055C57.0793 38.9055 54.3523 35.3476 54.3523 28.309C54.3523 22.74 56.186 19.0274 58.7719 17.171C61.0288 15.5467 64.1789 15.2374 66.5768 14.7733V13.9225C66.5768 12.2982 66.6709 10.3645 66.0596 8.97226C65.5424 7.73471 64.6021 7.19326 63.7558 7.19326C62.1572 7.19326 60.7467 8.50818 60.4175 11.2927C60.3235 11.9114 60.0884 12.5302 59.7123 12.5302L55.7158 11.8341C55.3867 11.6794 55.0105 11.2927 55.1046 10.4418C56.0449 2.39776 60.4175 0 64.367 0C66.3888 0 69.0218 0.850812 70.6204 3.40326C72.6421 6.49714 72.454 10.6739 72.454 15.16V25.7565C72.454 28.9278 73.2533 30.32 74.0056 32.099C74.2877 32.7178 74.3347 33.4912 74.0056 33.878C73.1123 35.0382 71.6077 37.2039 70.7614 38.3641ZM12.2716 21.7345C12.2716 24.3643 12.3186 26.6074 11.5193 29.0051C10.8611 30.9388 9.82666 32.099 8.65123 32.099C7.05263 32.099 6.11228 30.088 6.11228 27.1488C6.11228 21.3478 9.26246 20.2649 12.2716 20.2649V21.7345ZM16.4091 38.3641C16.127 38.7509 15.7509 38.8282 15.4218 38.5188C14.0582 36.6625 13.7761 35.7343 13.0239 33.9553C10.767 37.7453 9.1214 38.9055 6.20631 38.9055C2.72702 38.9055 0 35.3476 0 28.309C0 22.74 1.83368 19.0274 4.41965 17.171C6.67649 15.5467 9.82667 15.2374 12.2246 14.7733V13.9225C12.2246 12.2982 12.3186 10.3645 11.7074 8.97226C11.1902 7.73471 10.2498 7.19326 9.40351 7.19326C7.80491 7.19326 6.39438 8.50818 6.06526 11.2927C5.97123 11.9114 5.73614 12.5302 5.36 12.5302L1.36351 11.8341C1.03438 11.6794 0.658248 11.2927 0.752284 10.4418C1.69263 2.39776 6.06526 0 10.0147 0C12.0365 0 14.6695 0.850812 16.2681 3.40326C18.2898 6.49714 18.1018 10.6739 18.1018 15.16V25.7565C18.1018 28.9278 18.9011 30.32 19.6533 32.099C19.9354 32.7178 19.9825 33.4912 19.6533 33.878C18.76 35.0382 17.2554 37.2039 16.4091 38.3641Z" fill="#333333"/>
</svg>
