<svg width="215" height="42" viewBox="0 0 215 42" fill="none" xmlns="http://www.w3.org/2000/svg">
<path d="M13.6194 40.9684H5.5185V20.7738H0V14.1988H5.51829V9.52027C5.51829 3.97619 7.95904 0 16.038 0C17.7468 0 20.4294 0.344409 20.4294 0.344409V6.44961H17.6117C14.7408 6.44961 13.6199 7.32289 13.6199 9.7372V14.1988H20.3219L19.7251 20.7738H13.6196L13.6194 40.9684ZM32.2072 13.6734C32.0892 13.6734 31.9677 13.6777 31.8475 13.6807C24.3359 13.6807 20.8991 19.331 20.8991 27.3517C20.8991 37.4557 25.3571 41.4996 31.9062 41.4996C35.6533 41.4996 38.1151 39.9225 39.6114 36.9793V40.9712H47.3165V14.2016H39.6114V18.3184C38.3896 15.6698 35.859 13.7048 32.2072 13.6734ZM34.1664 19.999C37.3213 19.999 39.2149 22.1996 39.2149 25.9427L39.2223 29.7658C39.2223 32.2887 37.6582 35.2403 34.1664 35.2403C28.7982 35.2403 28.9416 29.4438 28.9416 27.5132C28.9416 21.0191 31.8018 19.999 34.1664 19.999ZM50.4282 27.5878C50.4282 24.3348 50.2726 13.6908 64.1401 13.6908C69.7068 13.6908 72.0312 15.4608 72.0312 15.4608L70.163 21.2553C70.163 21.2553 67.8416 19.977 64.8167 19.977C60.9424 19.977 58.4703 22.223 58.4703 26.1747L58.4746 29.0082C58.4746 32.8053 60.8598 35.34 64.8246 35.34C67.5803 35.34 70.1202 34.0497 70.1202 34.0497L71.9837 39.7232C71.9837 39.7232 69.8583 41.5043 64.179 41.5043C50.975 41.5043 50.4285 31.9546 50.4285 27.5878H50.4282ZM117.209 13.6807C124.721 13.6807 128.212 19.331 128.212 27.3517C128.212 37.4557 123.754 41.4996 117.205 41.4996C113.458 41.4996 110.688 39.9227 109.192 36.9793V40.9712L101.583 40.9682V0.813941L109.661 0.109428V17.9557C110.827 14.8335 114.659 13.6807 117.209 13.6807H117.209ZM114.945 19.999C111.79 19.999 109.661 22.1996 109.661 25.9427L109.654 29.7658C109.649 32.2887 111.128 35.2403 114.945 35.2403C120.313 35.2403 120.169 29.4438 120.169 27.5132C120.169 21.0191 117.309 19.999 114.945 19.999ZM86.0471 13.7028C77.5272 13.7028 73.0292 18.3481 73.0292 26.6031V28.1369C73.0292 38.8512 79.3457 41.6097 86.8763 41.6097C94.196 41.6097 97.5091 39.5624 97.5091 39.5624L95.9976 34.1103C95.9976 34.1103 92.1003 35.7685 87.8448 35.7685C83.4333 35.7685 81.536 34.6441 81.0497 30.4046H98.155V26.0306C98.155 17.076 93.1068 13.7026 86.0469 13.7026L86.0471 13.7028ZM86.2524 19.1622C89.2016 19.1622 91.1126 20.9707 91.0077 25.1649H81.0646C81.237 20.7506 83.2978 19.1624 86.2524 19.1624V19.1622ZM144.319 13.6661C135.57 13.6661 130.964 18.5966 130.964 27.4324C130.964 39.5555 138.904 41.5069 144.334 41.5069C152.283 41.5069 157.572 37.2272 157.572 27.5424C157.572 17.4623 151.625 13.6661 144.319 13.6661ZM144.209 20.0209C148.056 20.0209 149.581 22.9002 149.581 26.1777V28.9955C149.581 32.9659 147.448 35.2624 144.194 35.2624C141.152 35.2624 139.014 33.1143 139.014 28.9955V26.1777C139.014 21.7851 141.558 20.0209 144.209 20.0209ZM173.664 13.6661C164.915 13.6661 160.309 18.5966 160.309 27.4324C160.309 39.5555 168.249 41.5069 173.679 41.5069C181.628 41.5069 186.917 37.2272 186.917 27.5424C186.917 17.4623 180.97 13.6661 173.664 13.6661ZM173.554 20.0209C177.402 20.0209 178.926 22.9002 178.926 26.1777V28.9955C178.926 32.9659 176.793 35.2624 173.54 35.2624C170.497 35.2624 168.359 33.1143 168.359 28.9955V26.1777C168.359 21.7851 170.903 20.0209 173.554 20.0209ZM189.97 40.9684V0.813941L198.071 0.109428V27.0234L206.109 14.1988H214.664L206.28 27.4814L214.987 40.9684H206.407L198.071 27.8726V40.9684H189.97Z" fill="#333333"/>
</svg>
