<svg width="178" height="58" viewBox="0 0 178 58" fill="none" xmlns="http://www.w3.org/2000/svg">
<path d="M21.8837 0H23.4638C28.9494 0.119252 34.3455 2.32542 38.2212 6.23093C36.7902 7.69177 35.3294 9.09299 33.9281 10.5538C31.7518 8.58617 29.1282 7.0657 26.2662 6.52906C22.0327 5.63467 17.4713 6.43962 13.9236 8.85448C10.0479 11.3886 7.42432 15.6817 6.85787 20.2729C6.2318 24.8045 7.51376 29.5746 10.4653 33.0925C13.2975 36.521 17.6204 38.6676 22.0924 38.8166C26.2662 39.0551 30.6189 37.7732 33.6598 34.8515C36.0449 32.7944 37.148 29.664 37.5057 26.6231C32.5567 26.6231 27.6078 26.6529 22.6588 26.6231V20.4816H43.4981C44.5714 27.0703 43.0211 34.4937 38.0125 39.2042C34.6735 42.5433 30.0524 44.5109 25.342 44.8985C20.7806 45.3457 16.0701 44.4811 12.0155 42.2749C7.15601 39.6812 3.28031 35.2987 1.37227 30.141C-0.416515 25.4007 -0.446329 20.0344 1.2232 15.2643C2.74367 10.9116 5.66535 7.0657 9.4218 4.38252C13.0292 1.72916 17.4117 0.268318 21.8837 0Z" fill="#333333"/>
<path d="M141.434 1.55029H147.814V44.1234C145.697 44.1234 143.551 44.1532 141.434 44.0935C141.464 29.9323 141.434 15.7413 141.434 1.55029Z" fill="#333333"/>
<path d="M57.6892 16.3077C61.6246 15.5624 65.8878 16.3971 69.1375 18.7523C72.089 20.8393 74.1461 24.1187 74.7721 27.6963C75.5771 31.8403 74.5634 36.3719 71.8803 39.6513C68.9884 43.3183 64.2481 45.286 59.6271 44.9879C55.3936 44.7493 51.2794 42.6326 48.7751 39.1743C45.9429 35.3582 45.2572 30.1111 46.8075 25.6392C48.3577 20.8393 52.7403 17.1723 57.6892 16.3077ZM58.5836 21.9722C56.9737 22.3895 55.4831 23.3137 54.4098 24.6255C51.5179 28.0838 51.6968 33.7185 54.8868 36.9383C56.7054 38.7867 59.4482 39.6513 61.9823 39.1445C64.3376 38.7271 66.3947 37.147 67.5276 35.0601C69.4952 31.5123 68.9288 26.623 65.9177 23.8504C63.9798 22.0616 61.1476 21.3163 58.5836 21.9722Z" fill="#333333"/>
<path d="M89.2912 16.3077C93.793 15.4431 98.7121 16.6952 102.081 19.8554C107.567 24.7746 108.163 33.9868 103.482 39.6513C100.65 43.2289 96.0588 45.1965 91.5272 44.9878C87.2043 44.8686 82.941 42.7221 80.3771 39.1743C77.4852 35.2688 76.8591 29.9024 78.4989 25.341C80.1386 20.6902 84.4317 17.1424 89.2912 16.3077ZM90.1856 21.9722C88.5757 22.3895 87.085 23.3137 86.0118 24.5957C83.1497 27.9944 83.269 33.5396 86.3397 36.7893C88.1583 38.7271 90.9905 39.6811 93.6141 39.1445C95.9395 38.6973 98.0264 37.147 99.1593 35.0601C101.097 31.4825 100.531 26.5932 97.4898 23.8206C95.5519 22.0318 92.7197 21.3163 90.1856 21.9722Z" fill="#333333"/>
<path d="M116.093 18.037C119.521 15.8905 124.083 15.2942 127.78 17.1426C128.942 17.6495 129.896 18.514 130.82 19.3786C130.85 18.5737 130.82 17.7389 130.85 16.9041C132.848 16.9339 134.845 16.9041 136.873 16.9339V43.2291C136.843 47.1942 135.829 51.3979 132.967 54.2897C129.837 57.4797 125.037 58.4636 120.714 57.8077C116.093 57.122 112.068 53.7531 110.279 49.4898C112.068 48.6252 113.946 47.9395 115.795 47.1346C116.838 49.5793 118.955 51.6662 121.608 52.1432C124.262 52.6202 127.332 51.9643 129.061 49.7581C130.91 47.4923 130.91 44.3918 130.82 41.6192C129.449 42.9608 127.869 44.1533 125.961 44.6005C121.817 45.7632 117.256 44.3322 114.066 41.5297C110.846 38.7273 108.938 34.4044 109.117 30.1113C109.206 25.2518 111.949 20.5711 116.093 18.037ZM122.264 21.8531C120.446 22.1512 118.746 23.1649 117.583 24.5661C114.781 27.9052 114.781 33.2417 117.613 36.5211C119.223 38.459 121.817 39.5323 124.321 39.2639C126.676 39.0254 128.853 37.5348 130.016 35.4777C131.983 31.9895 131.655 27.2493 129.002 24.2083C127.362 22.3301 124.739 21.4059 122.264 21.8531Z" fill="#333333"/>
<path d="M155.476 19.5573C159.053 16.2182 164.569 15.0853 169.16 16.8443C173.513 18.484 176.285 22.6281 177.687 26.8913C171.217 29.5745 164.778 32.2279 158.308 34.911C159.202 36.6104 160.574 38.1607 162.422 38.7867C165.016 39.7109 168.117 39.383 170.293 37.6538C171.158 36.998 171.843 36.1334 172.499 35.2986C174.139 36.4017 175.779 37.475 177.418 38.578C175.093 42.0662 171.187 44.5109 166.984 44.8984C162.333 45.4649 157.384 43.6761 154.373 40.0389C149.424 34.3148 149.901 24.715 155.476 19.5573ZM158.666 25.0727C157.652 26.5336 157.235 28.3223 157.265 30.0813C161.588 28.2925 165.91 26.5038 170.233 24.6852C169.518 23.0156 167.789 22.002 166.03 21.7337C163.197 21.2268 160.246 22.7473 158.666 25.0727Z" fill="#333333"/>
</svg>
