<svg width="92" height="30" viewBox="0 0 92 30" fill="none" xmlns="http://www.w3.org/2000/svg">
<path d="M8.08 0.799998V29H0.24V0.799998H8.08ZM23.7047 0.799998C26.6647 0.799998 29.2514 1.4 31.4647 2.6C33.7047 3.77333 35.4247 5.42666 36.6247 7.56C37.8247 9.69333 38.4247 12.1333 38.4247 14.88C38.4247 17.6 37.8114 20.0267 36.5847 22.16C35.3847 24.2933 33.6647 25.9733 31.4247 27.2C29.2114 28.4 26.638 29 23.7047 29H12.5447V0.799998H23.7047ZM23.1047 22.08C25.398 22.08 27.198 21.4533 28.5047 20.2C29.8114 18.9467 30.4647 17.1733 30.4647 14.88C30.4647 12.56 29.8114 10.7733 28.5047 9.52C27.198 8.24 25.398 7.6 23.1047 7.6H20.3847V22.08H23.1047ZM49.7988 7.08V11.68H58.7988V17.64H49.7988V22.72H59.9988V29H41.9588V0.799998H59.9988V7.08H49.7988ZM77.3928 29.28C74.7528 29.28 72.3261 28.6667 70.1128 27.44C67.8995 26.1867 66.1395 24.4667 64.8328 22.28C63.5528 20.0667 62.9128 17.5733 62.9128 14.8C62.9128 12.0267 63.5528 9.54667 64.8328 7.36C66.1395 5.14667 67.8995 3.42667 70.1128 2.2C72.3261 0.973333 74.7528 0.359999 77.3928 0.359999C80.0595 0.359999 82.4861 0.973333 84.6728 2.2C86.8861 3.42667 88.6328 5.14667 89.9128 7.36C91.1928 9.54667 91.8328 12.0267 91.8328 14.8C91.8328 17.5733 91.1928 20.0667 89.9128 22.28C88.6328 24.4667 86.8861 26.1867 84.6728 27.44C82.4595 28.6667 80.0328 29.28 77.3928 29.28ZM77.3928 22C79.3928 22 80.9661 21.3467 82.1128 20.04C83.2861 18.7333 83.8728 16.9867 83.8728 14.8C83.8728 12.56 83.2861 10.8 82.1128 9.52C80.9661 8.21333 79.3928 7.56 77.3928 7.56C75.3661 7.56 73.7795 8.21333 72.6328 9.52C71.4861 10.8 70.9128 12.56 70.9128 14.8C70.9128 17.0133 71.4861 18.7733 72.6328 20.08C73.7795 21.36 75.3661 22 77.3928 22Z" fill="#333333"/>
</svg>
