<svg width="217" height="78" viewBox="0 0 217 78" fill="none" xmlns="http://www.w3.org/2000/svg">
<path d="M78.8868 49.1824C78.8868 50.0112 78.8316 50.7572 78.721 51.4203H61.937C62.0751 53.078 62.6553 54.3765 63.6775 55.3158C64.6998 56.2552 65.9568 56.7249 67.4488 56.7249C69.6038 56.7249 71.1371 55.7993 72.0489 53.9482H78.3066C77.6435 56.1585 76.3727 57.9819 74.4939 59.4186C72.6152 60.8276 70.3083 61.5322 67.5731 61.5322C65.3628 61.5322 63.3736 61.0487 61.6054 60.0817C59.8648 59.0871 58.4973 57.6918 57.5026 55.896C56.5357 54.1002 56.0522 52.0281 56.0522 49.6797C56.0522 47.3037 56.5357 45.2177 57.5026 43.4219C58.4696 41.6261 59.8234 40.2447 61.564 39.2777C63.3045 38.3107 65.3076 37.8272 67.5731 37.8272C69.7557 37.8272 71.7035 38.2969 73.4164 39.2363C75.157 40.1756 76.497 41.5156 77.4363 43.2562C78.4033 44.9691 78.8868 46.9445 78.8868 49.1824ZM72.8777 47.5247C72.8501 46.0328 72.3113 44.8448 71.2614 43.9607C70.2116 43.0489 68.9269 42.5931 67.4073 42.5931C65.9707 42.5931 64.755 43.0351 63.7604 43.9192C62.7934 44.7757 62.1994 45.9775 61.9784 47.5247H72.8777ZM88.9236 41.7642C89.6696 40.5486 90.6365 39.5954 91.8245 38.9047C93.0402 38.214 94.4216 37.8687 95.9688 37.8687V43.9607H94.4354C92.612 43.9607 91.2305 44.3889 90.2912 45.2454C89.3795 46.1018 88.9236 47.5938 88.9236 49.7211V61.1592H83.1217V38.2002H88.9236V41.7642ZM98.3847 49.5968C98.3847 47.276 98.8406 45.2177 99.7523 43.4219C100.692 41.6261 101.963 40.2447 103.565 39.2777C105.167 38.3107 106.949 37.8272 108.911 37.8272C110.403 37.8272 111.826 38.1588 113.18 38.8218C114.533 39.4573 115.611 40.3138 116.412 41.3913V30.492H122.297V61.1592H116.412V57.7609C115.694 58.8937 114.685 59.8054 113.387 60.4961C112.088 61.1868 110.583 61.5322 108.87 61.5322C106.936 61.5322 105.167 61.0349 103.565 60.0402C101.963 59.0456 100.692 57.6504 99.7523 55.8546C98.8406 54.0311 98.3847 51.9452 98.3847 49.5968ZM116.454 49.6797C116.454 48.2707 116.177 47.0688 115.625 46.0742C115.072 45.052 114.326 44.2784 113.387 43.7535C112.447 43.2009 111.439 42.9246 110.362 42.9246C109.284 42.9246 108.289 43.1871 107.378 43.712C106.466 44.2369 105.72 45.0105 105.14 46.0328C104.587 47.0274 104.311 48.2154 104.311 49.5968C104.311 50.9782 104.587 52.1939 105.14 53.2437C105.72 54.266 106.466 55.0534 107.378 55.6059C108.317 56.1585 109.312 56.4348 110.362 56.4348C111.439 56.4348 112.447 56.1723 113.387 55.6474C114.326 55.0948 115.072 54.3212 115.625 53.3266C116.177 52.3044 116.454 51.0887 116.454 49.6797ZM149.306 49.1824C149.306 50.0112 149.251 50.7572 149.14 51.4203H132.356C132.494 53.078 133.075 54.3765 134.097 55.3158C135.119 56.2552 136.376 56.7249 137.868 56.7249C140.023 56.7249 141.556 55.7993 142.468 53.9482H148.726C148.063 56.1585 146.792 57.9819 144.913 59.4186C143.035 60.8276 140.728 61.5322 137.992 61.5322C135.782 61.5322 133.793 61.0487 132.025 60.0817C130.284 59.0871 128.917 57.6918 127.922 55.896C126.955 54.1002 126.472 52.0281 126.472 49.6797C126.472 47.3037 126.955 45.2177 127.922 43.4219C128.889 41.6261 130.243 40.2447 131.983 39.2777C133.724 38.3107 135.727 37.8272 137.992 37.8272C140.175 37.8272 142.123 38.2969 143.836 39.2363C145.576 40.1756 146.916 41.5156 147.856 43.2562C148.823 44.9691 149.306 46.9445 149.306 49.1824ZM143.297 47.5247C143.269 46.0328 142.731 44.8448 141.681 43.9607C140.631 43.0489 139.346 42.5931 137.827 42.5931C136.39 42.5931 135.174 43.0351 134.18 43.9192C133.213 44.7757 132.619 45.9775 132.398 47.5247H143.297ZM152.049 49.6797C152.049 47.3037 152.533 45.2316 153.5 43.4634C154.467 41.6675 155.807 40.2861 157.519 39.3191C159.232 38.3245 161.194 37.8272 163.404 37.8272C166.25 37.8272 168.598 38.5456 170.449 39.9822C172.328 41.3913 173.585 43.3805 174.221 45.9499H167.963C167.631 44.9553 167.065 44.1817 166.264 43.6291C165.49 43.0489 164.523 42.7588 163.363 42.7588C161.705 42.7588 160.393 43.3667 159.426 44.5823C158.459 45.7703 157.975 47.4694 157.975 49.6797C157.975 51.8623 158.459 53.5614 159.426 54.7771C160.393 55.9651 161.705 56.5591 163.363 56.5591C165.711 56.5591 167.245 55.5092 167.963 53.4095H174.221C173.585 55.896 172.328 57.8714 170.449 59.3357C168.571 60.8 166.222 61.5322 163.404 61.5322C161.194 61.5322 159.232 61.0487 157.519 60.0817C155.807 59.0871 154.467 57.7057 153.5 55.9375C152.533 54.1416 152.049 52.0557 152.049 49.6797ZM185.226 42.9661V54.0726C185.226 54.8462 185.406 55.4125 185.765 55.7717C186.152 56.1032 186.787 56.269 187.671 56.269H190.365V61.1592H186.718C181.828 61.1592 179.383 58.7832 179.383 54.0311V42.9661H176.648V38.2002H179.383V32.5226H185.226V38.2002H190.365V42.9661H185.226Z" fill="#404040"/>
<path d="M18.4268 0.258789H29.348C41.3853 0.258789 51.1434 10.017 51.1434 22.0543C51.1434 34.0916 41.3853 43.8497 29.348 43.8497H18.4268V0.258789Z" fill="url(#paint0_linear_7_5198)"/>
<path d="M18.4173 43.9262C18.3155 24.0375 40.0682 18.7545 50.8471 18.5991C53.469 35.6294 38.6114 43.9262 30.8594 43.9262H18.4173Z" fill="url(#paint1_linear_7_5198)"/>
<path d="M0.264648 18.4347C0.264648 8.39641 8.40229 0.258789 18.4406 0.258789V55.3412C18.4406 61.5875 13.377 66.6511 7.13071 66.6511H0.264648V18.4347Z" fill="url(#paint2_linear_7_5198)"/>
<defs>
<linearGradient id="paint0_linear_7_5198" x1="34.7851" y1="0.258789" x2="21.6175" y2="29.9833" gradientUnits="userSpaceOnUse">
<stop stop-color="#3CC3FD"/>
<stop offset="1" stop-color="#38B7ED"/>
</linearGradient>
<linearGradient id="paint1_linear_7_5198" x1="34.7425" y1="18.5991" x2="38.0393" y2="41.754" gradientUnits="userSpaceOnUse">
<stop offset="0.262813" stop-color="#3CC3FD"/>
<stop offset="1" stop-color="#7DDFFF"/>
</linearGradient>
<linearGradient id="paint2_linear_7_5198" x1="9.35261" y1="0.258789" x2="9.35261" y2="66.6511" gradientUnits="userSpaceOnUse">
<stop stop-color="#3CC3FD"/>
<stop offset="1" stop-color="#7DDFFF"/>
</linearGradient>
</defs>
</svg>
