<svg width="226" height="37" viewBox="0 0 226 37" fill="none" xmlns="http://www.w3.org/2000/svg">
<path fill-rule="evenodd" clip-rule="evenodd" d="M0 35.505L7.88686 0H21.9665L22.6093 19.8344L32.0872 0H46.2004L38.2813 35.505H28.0588L32.2895 16.4153L22.7794 35.505H15.4336L15.0613 16.4153L10.323 35.505H0ZM47.4204 5.78696H56.9305L58.2162 0H48.6713L47.4204 5.78696ZM50.3306 35.5398L40.7522 35.505L46.6075 9.20606H56.1858L50.3306 35.5398ZM86.6151 9.20606H95.1783L94.4336 12.4551C95.6189 10.9994 97.0398 10.086 98.8344 9.4766C100.275 8.99681 101.784 8.75658 103.302 8.76547L101.102 17.3287C100.561 17.3287 93.9273 16.0417 91.8622 26.1624L89.7301 35.5373H80.6915L86.6151 9.20606Z" fill="#333333"/>
<path fill-rule="evenodd" clip-rule="evenodd" d="M81.6062 25.7913C81.6062 25.9935 78.5942 36.5536 65.3597 36.2843C47.6227 35.912 52.227 7.48093 72.3654 8.49609C83.8053 9.07067 83.2308 18.5821 83.129 18.9892H73.2453C73.3806 18.6168 73.7194 14.6902 70.5708 14.7584C64.7156 14.9285 60.5519 29.4474 67.0164 29.584C69.995 29.6858 71.3837 26.2332 71.6543 25.7939H81.6062V25.7913ZM166.529 36.3861C147.27 35.5732 153.057 7.20911 172.824 8.15728C191.407 9.07067 186.125 37.1642 166.529 36.3861ZM172.18 14.3501C165.784 13.0643 161.011 28.431 167.106 29.6832C173.873 31.1054 178.41 15.6036 172.18 14.3501Z" fill="#333333"/>
<path fill-rule="evenodd" clip-rule="evenodd" d="M202.257 5.10414C199.621 5.10414 199.117 6.11002 198.678 8.08859L198.507 8.96043H204.079L205.464 2.65583H214.173L212.823 8.96043H217.313L215.998 14.9638H211.505L209.041 26.3999C208.94 27.0369 208.704 27.6062 208.94 28.3108C209.312 29.3499 213.059 28.9159 213.059 28.9159L211.608 34.886C211.608 34.886 203.977 35.7579 201.41 33.9797C200.262 33.2087 199.013 31.5991 199.791 28.1449L202.727 14.9983L197.494 14.9651L193.072 35.0201H183.685L188.075 14.9651H183.245L184.596 8.96171H189.289C190.132 5.60835 190.875 3.32726 192.968 1.58357C195.839 -0.730719 203.302 0.174321 203.302 0.174321L202.257 5.10414ZM117.985 26.0987L135.81 26.0655C135.81 26.0655 134.291 29.9894 139.896 30.0239C143.778 30.0239 145.297 25.6302 140.065 24.7251C137.668 24.2886 128.383 22.7453 129.431 15.6352C130.31 9.80037 136.419 7.75415 143.105 7.85499C156.779 8.02221 154.214 16.0054 154.382 16.5415H145.265C145.265 16.5415 146.244 13.1882 142.126 13.1882C138.379 13.1882 137.465 16.5415 141.787 17.4466C147.055 18.5878 153.099 18.8558 153.434 25.597C153.535 27.476 152.423 36.2608 138.646 35.9941C126.019 35.726 125.142 29.8235 125.479 27.0739C123.183 31.8697 117.442 36.1294 109.779 35.8613C90.5688 35.2575 96.4095 6.98442 116.093 7.95839C125.041 8.39367 128.451 15.1348 127.369 21.7752C127.201 22.9495 127.101 23.1168 126.762 23.2176L117.985 26.0987ZM115.384 14.0243C109.069 12.7835 104.344 27.9419 110.386 29.2171C117.073 30.5932 121.563 15.2663 115.384 14.0243ZM222.581 8.92724C227.14 8.92724 227.14 15.6684 222.581 15.6684C218.023 15.6684 218.023 8.92724 222.581 8.92724ZM222.581 9.53102C218.766 9.53102 218.766 15.0314 222.581 15.0314C226.429 15.0314 226.429 9.53102 222.581 9.53102ZM223.189 12.6827L223.864 14.0243H223.053L222.513 12.6827H222.039L221.839 14.1251H221.128L221.702 10.5369H223.356C223.356 10.5369 224.267 10.7718 224.199 11.6436C224.1 12.6827 223.257 12.6827 223.189 12.6827ZM223.018 11.0067H222.346L222.175 12.181H222.85C222.85 12.181 223.525 12.2819 223.593 11.6104C223.593 11.0067 223.018 11.0067 223.018 11.0067Z" fill="#333333"/>
</svg>
